PathFileType	4	(X/Y/Z)	DARI_DATA/Captury_Subj2_bilateral_squat03.trc
DataRate	CameraRate	NumFrames	NumMarkers	Units	OrigDataRate	OrigDataStartFrame	OrigNumFrames
60	60	7	47	mm	60.00239944458008	187	249
Frame#	Time		LeftUpLeg_		RightUpLeg_		LeftLeg_		RightLeg_		LeftFoot_		RightFoot_		LeftToeBase_		RightToeBase_		Knee_Lateral_r		Knee_Lateral_l		Ankle_Lateral_r		Ankle_Lateral_l		LeftArm_		LeftForeArm_		LeftHand_		LeftHandEE		RightArm_		RightForeArm_		RightHand_		RightHandEE		Spine_		Spine1_		Spine2_		Spine3_		Spine4_		Spine5_		Spine_x		Spine_y		Spine_z		RASI		LASI		RIPS		LIPS		RTHI		LTHI		RTIB		LTIB		RTOE		LTOE		RHEE		LHEE		RHipAngles		LHipAngles		RKneeAngles		LKneeAngles		RAnkleAngles		LAnkleAngles
			X1	Y1	Z1	X2	Y2	Z2	X3	Y3	Z3	X4	Y4	Z4	X5	Y5	Z5	X6	Y6	Z6	X7	Y7	Z7	X8	Y8	Z8	X9	Y9	Z9	X10	Y10	Z10	X11	Y11	Z11	X12	Y12	Z12	X13	Y13	Z13	X14	Y14	Z14	X15	Y15	Z15	X16	Y16	Z16	X17	Y17	Z17	X18	Y18	Z18	X19	Y19	Z19	X20	Y20	Z20	X21	Y21	Z21	X22	Y22	Z22	X23	Y23	Z23	X24	Y24	Z24	X25	Y25	Z25	X26	Y26	Z26	X27	Y27	Z27	X28	Y28	Z28	X29	Y29	Z29	X30	Y30	Z30	X31	Y31	Z31	X32	Y32	Z32	X33	Y33	Z33	X34	Y34	Z34	X35	Y35	Z35	X36	Y36	Z36	X37	Y37	Z37	X38	Y38	Z38	X39	Y39	Z39	X40	Y40	Z40	X41	Y41	Z41	X42	Y42	Z42	X43	Y43	Z43	X44	Y44	Z44	X45	Y45	Z45	X46	Y46	Z46	X47	Y47	Z47

187	3.10000	20.06809	821.32886	94.45687	188.83163	820.56982	92.33595	-53.73732	457.35635	-76.31966	259.14020	458.25101	-83.36155	-84.19701	88.48172	-3.22576	294.20416	92.25449	1.23209	-96.58436	23.92946	-114.00792	306.02383	23.76009	-107.22038	305.51013	461.45288	-76.97130	-99.87604	460.27457	-68.32218	337.85254	99.21715	25.72363	-127.07274	94.27435	22.88195	-34.10157	1315.99426	-41.30996	-93.47017	1287.05225	-296.03180	-89.11481	1299.78882	-521.37451	-84.55910	1308.50281	-603.17102	242.53580	1312.16040	-43.20445	282.51178	1280.41296	-301.35083	281.01242	1302.25977	-526.03064	281.67859	1320.96716	-606.26129	104.72958	915.04102	81.98031	104.50822	1003.57025	41.29103	104.34389	1073.82043	36.99449	103.59737	1162.56494	53.99848	102.92487	1292.46106	26.33001	-0.00000	0.00000	-0.00000	152.17238	914.82764	81.38407	104.74503	960.09052	67.08853	105.36266	929.93127	127.02586	245.52933	851.63458	-18.98264	-39.12751	852.91486	-15.40523	143.05440	896.77478	117.46571	67.14590	897.11615	118.41969	286.70157	655.33624	22.32166	-78.99878	654.94580	28.99628	314.30289	294.37982	-54.49480	-109.50774	236.29831	-45.62820	311.71609	21.48123	-179.58325	-101.74540	16.41071	-186.05521	292.42023	37.34918	60.37631	-85.36093	31.69963	54.13496	-44.24233	7.49190	5.82840	-43.80095	6.90474	6.73815	-33.03831	0.11857	-0.10692	-30.71254	-0.15031	-0.16415	4.11591	-3.35774	-0.45420	3.92516	-5.57496	2.36506
188	3.11667	19.86262	826.86078	90.36246	188.62659	825.89539	88.35781	-51.94200	458.60049	-71.86066	257.39319	459.28485	-78.84190	-84.12225	89.04343	-3.07809	293.96930	92.42621	1.25790	-96.07480	24.02624	-113.63593	305.67920	23.40997	-106.87519	303.80099	462.55389	-72.76840	-98.13281	461.57440	-64.19107	337.76505	99.52583	25.44516	-127.15324	94.98106	22.73999	-33.69109	1322.25378	-39.44477	-93.33365	1291.98767	-293.94861	-89.69474	1303.69824	-519.35968	-85.22412	1311.50684	-601.25232	242.87291	1318.60596	-42.10198	282.96844	1285.26538	-300.02884	281.15329	1306.13147	-524.79950	280.87277	1324.53650	-605.10229	104.66017	920.58923	78.98073	104.57701	1009.65649	39.22718	104.48669	1080.05298	35.66362	103.79872	1168.71838	53.59144	103.23344	1299.00342	27.27744	-0.00000	0.00000	-0.00000	152.10309	920.31787	78.41718	104.74777	965.79987	64.58579	105.27948	934.98187	124.18793	245.45001	858.10645	-22.57021	-39.20749	859.73462	-19.18893	142.93353	901.88135	114.29117	67.02486	902.31555	115.19284	285.84448	658.82660	21.87945	-78.35866	658.62909	28.44833	313.16565	295.23120	-52.27480	-108.64925	237.40381	-44.01684	311.23770	20.81180	-179.23770	-100.80679	16.25269	-185.68564	292.37042	37.81298	60.67719	-85.88128	32.53467	54.53684	-42.19974	7.30556	5.55794	-41.72930	6.58177	6.57404	-30.96645	0.08725	-0.09308	-28.64370	-0.14194	-0.12167	5.08263	-3.11414	-0.44400	4.82679	-5.55343	2.55837
189	3.13333	19.54301	831.68445	86.26634	188.31064	830.81421	84.55158	-50.00567	459.50916	-67.79990	255.47925	460.26221	-74.40585	-83.97073	89.43591	-2.75209	293.68484	92.64267	1.32566	-95.64828	23.85183	-113.00404	305.50519	23.14278	-106.48518	301.92410	463.57288	-68.64639	-96.24965	462.48581	-60.45880	337.62164	99.89955	25.20854	-127.15831	95.56178	22.75871	-33.45921	1328.22986	-37.68833	-93.37746	1296.49255	-291.94812	-90.16129	1307.01587	-517.42419	-85.84784	1314.38452	-599.36603	242.98450	1324.54663	-41.92141	284.70584	1289.25659	-299.33051	281.03769	1309.06836	-524.17401	279.41309	1327.69519	-604.40967	104.32008	925.58563	76.23501	104.29084	1015.27264	37.56192	104.20971	1085.84155	34.83555	103.49637	1174.42102	53.80803	103.09936	1305.14490	29.02839	-0.00000	0.00000	-0.00000	151.76404	925.34100	75.75295	104.41377	970.97656	62.41914	104.85249	939.39966	121.62346	245.31796	864.46350	-25.85393	-39.34576	865.93140	-22.96159	142.53848	906.44379	111.37196	66.62814	906.83521	112.14325	284.84921	662.03510	21.49137	-77.71525	661.70007	27.71024	311.91156	296.08685	-50.07823	-107.68251	238.26180	-42.46316	311.00620	20.24269	-178.84061	-100.02869	15.72162	-185.03662	292.30099	38.31108	61.00796	-86.31683	33.26411	55.17059	-40.10249	6.99723	5.27693	-39.64462	6.33735	6.42929	-28.96835	0.11793	-0.07451	-26.73463	-0.03600	-0.08845	6.01602	-2.80550	-0.38866	5.69408	-5.46388	2.76269
190	3.15000	19.31619	836.35120	82.59188	188.08379	835.32306	80.96069	-48.29678	460.65775	-63.59557	253.61102	461.17099	-70.05000	-83.61492	90.02615	-2.57225	293.00970	92.82916	1.44157	-95.22053	23.96497	-112.54660	305.18097	22.87579	-106.03640	300.08789	464.48029	-64.55393	-94.58710	463.64896	-56.55877	337.06897	100.20352	25.06139	-126.95239	96.27858	22.65205	-33.07751	1333.69958	-36.12531	-93.47348	1300.47925	-290.08246	-90.35220	1310.01331	-515.60388	-86.51209	1316.91162	-597.61017	243.28606	1329.90564	-40.07412	283.33023	1293.24670	-297.55832	280.77716	1311.90271	-522.51611	278.76401	1330.41162	-602.77026	104.19276	930.23431	73.25726	104.27471	1020.32831	35.28377	104.26534	1091.01904	33.15334	103.62939	1179.52026	52.93904	103.36982	1310.58142	29.42694	-0.00000	0.00000	-0.00000	151.63670	929.94525	72.79870	104.33939	975.71985	59.75670	104.71461	943.73260	118.74074	245.18416	869.67999	-29.17842	-39.47948	871.41431	-26.42705	142.37305	910.81073	108.28084	66.46274	911.27319	109.01454	283.91251	664.92908	21.24955	-77.11808	664.81274	27.29579	310.51501	296.85513	-47.86418	-106.68779	239.30885	-40.92147	310.77335	19.69375	-178.37297	-99.40575	15.54008	-184.55692	291.73376	38.76691	61.37034	-86.37811	34.14221	55.60989	-38.42135	6.79319	5.08628	-37.95061	6.02939	6.25944	-27.05910	0.15633	-0.06436	-24.85793	-0.00477	-0.06721	6.91863	-2.42477	-0.29028	6.55933	-5.27166	2.95941
191	3.16667	19.09756	840.62933	78.57156	187.86905	839.63190	77.38011	-46.44258	461.51678	-59.50826	251.20813	461.96768	-65.60860	-83.23397	90.41132	-2.35815	292.44217	93.02069	1.59946	-94.76015	23.78004	-111.99641	305.04419	22.68761	-105.58066	297.72681	465.22714	-60.44656	-92.79022	464.53384	-52.87105	336.65765	100.57326	24.86848	-126.77234	96.81824	22.47848	-32.88339	1338.77698	-34.79554	-93.72235	1303.98010	-288.43564	-90.57213	1312.53259	-513.99597	-86.80873	1319.39954	-596.00842	243.34775	1334.18408	-38.61649	282.78116	1296.70532	-296.07687	280.32736	1314.42310	-521.11157	278.35583	1332.09363	-601.55554	103.98848	934.61139	70.44049	104.17923	1025.14307	33.37292	104.21015	1095.90894	31.94153	103.61563	1184.26904	52.59190	103.51479	1315.61121	30.35528	-0.00000	0.00000	-0.00000	151.43352	934.33099	70.10555	104.16615	980.23492	57.41421	104.38753	947.63586	116.06313	245.25928	875.13733	-32.24290	-39.41095	876.81970	-30.23326	142.07733	914.82764	105.36189	66.16528	915.27631	105.89780	282.75098	667.59692	20.95254	-76.47062	667.60126	26.50735	308.84821	297.62152	-45.65987	-105.58647	240.11212	-39.48466	310.67075	19.27313	-177.90399	-98.72794	15.00939	-183.97775	291.46310	39.20433	61.75472	-86.45934	34.87243	56.12981	-36.51353	6.41065	4.74163	-36.02732	5.80299	6.06011	-25.12824	0.34275	-0.06955	-22.97918	0.02611	-0.05613	7.79190	-1.97261	-0.15607	7.44257	-4.97786	3.15468
192	3.18333	18.81315	844.62231	74.70125	187.58565	843.47906	73.83541	-44.73817	462.37097	-55.42564	249.09303	462.68237	-61.43691	-82.88600	90.82007	-2.19282	291.77365	93.19739	1.79460	-94.48592	23.62370	-111.47785	304.83731	22.45905	-105.06305	295.65027	465.92633	-56.62460	-91.14036	465.40601	-49.19007	336.15463	100.89677	24.69749	-126.62749	97.37515	22.24502	-32.90693	1343.36316	-33.52472	-93.85149	1307.34155	-286.96841	-90.41579	1315.00403	-512.55664	-87.13294	1321.17114	-594.64532	243.18800	1338.17834	-37.61932	282.74680	1299.51672	-294.88550	280.35437	1316.18481	-520.00110	277.95847	1333.42957	-600.52588	103.80596	938.60040	67.66295	104.13373	1029.52893	31.48658	104.20043	1100.34058	30.75322	103.59953	1188.52600	52.27931	103.50153	1320.11877	31.35270	-0.00000	0.00000	-0.00000	151.25128	938.27899	67.41955	104.05133	984.34955	55.08607	104.12585	951.17554	113.41210	245.22699	880.00641	-35.31911	-39.44494	881.93469	-33.85868	141.80693	918.43890	102.46384	65.89441	918.95312	102.85329	281.68445	670.02570	20.52483	-75.92474	670.22253	25.79196	307.29022	298.29041	-43.59476	-104.55862	240.92180	-38.08329	310.52527	18.79305	-177.36926	-98.31413	14.51058	-183.42419	291.05966	39.64515	62.18881	-86.54861	35.63428	56.60283	-34.70512	6.15537	4.36184	-34.16760	5.51359	5.83448	-23.31822	0.44016	-0.08273	-21.13589	0.05728	-0.05502	8.62769	-1.47792	0.00574	8.33209	-4.61108	3.37756
193	3.20000	18.47923	848.16412	71.11430	187.25240	846.96808	70.48288	-43.11822	463.13425	-51.54606	247.16510	463.42029	-57.53822	-82.56870	91.20120	-2.06417	291.10046	93.46149	1.95253	-94.54206	23.48610	-110.98815	304.64069	22.36740	-104.60931	293.75684	466.65793	-53.06793	-89.56603	466.14798	-45.64901	335.63803	101.28955	24.50516	-126.48132	97.91001	22.02251	-32.85981	1347.47888	-32.65347	-94.04651	1310.40088	-285.88641	-90.16812	1317.44153	-511.48773	-86.87560	1322.33960	-593.66150	243.07755	1341.47559	-36.69094	282.83282	1301.87781	-293.78439	280.86249	1317.77783	-518.95959	277.99344	1333.89148	-599.70288	103.51433	942.16473	64.93970	103.93344	1033.43445	29.56618	104.04388	1104.27454	29.49831	103.48708	1192.26501	51.90478	103.50861	1324.09351	32.34821	-0.00000	0.00000	-0.00000	150.95984	941.82849	64.76220	103.79355	988.01147	52.72427	103.77242	954.37872	110.78700	245.06390	884.33429	-38.29706	-39.60916	886.35181	-37.23203	141.45805	921.71606	99.63535	65.54524	922.25409	99.91935	280.67313	672.28296	20.08121	-75.42841	672.50061	25.21946	305.83484	298.99295	-41.68004	-103.59608	241.67957	-36.74067	310.39777	18.47095	-176.89801	-98.38058	14.04157	-182.89120	290.64874	40.15054	62.56236	-86.63245	36.36314	57.02970	-33.09225	5.91912	4.00970	-32.51898	5.24544	5.64014	-21.63206	0.51247	-0.08897	-19.40485	0.15023	-0.06649	9.40119	-0.99310	0.18090	9.18487	-4.19031	3.64916
